PathFileType	4	(X/Y/Z)	C:\Users\Basilio\Documents\Thesis Gigler\squatting_fais\c3dfiles\076\SLS_front_pre2\markers_experimental.trc
DataRate	CameraRate	NumFrames	NumMarkers	Units	OrigDataRate	OrigDataStartFrame	OrigNumFrames
200.000000	200.000000	4	61	mm	200.000000	199	1595
Frame#	Time	FHD			LBHD			RBHD			C7			T10			CLAV			LSHO			LUUPA			LMUPA			LDUPA			LLEP			LMEP			LRAD			LUL			LRFIN			RSHO			RUPA1			RMUPA			RDUPA			RLEP			RMEP			RRAD			RUL			RUFIN			LASI			RASI			USACR			LSACR			RSACR			LTHI1			LTHI2			LTHI3			LTHI4			LLFC			LMFC			LTIB1			LTIB2			LTIB3			LTIB4			LLMAL			LMMAL			LHEE			LMT1			LMT2			LMT5			RTHI			RTHI2			RTHI3			RTHI4			RLFC			RMFC			RTIB1			RTIB2			RTIB3			RTIB4			RLMAL			RMMAL			RHEE			RMT1			RMT2			RMT5			
		X1	Y1	Z1	X2	Y2	Z2	X3	Y3	Z3	X4	Y4	Z4	X5	Y5	Z5	X6	Y6	Z6	X7	Y7	Z7	X8	Y8	Z8	X9	Y9	Z9	X10	Y10	Z10	X11	Y11	Z11	X12	Y12	Z12	X13	Y13	Z13	X14	Y14	Z14	X15	Y15	Z15	X16	Y16	Z16	X17	Y17	Z17	X18	Y18	Z18	X19	Y19	Z19	X20	Y20	Z20	X21	Y21	Z21	X22	Y22	Z22	X23	Y23	Z23	X24	Y24	Z24	X25	Y25	Z25	X26	Y26	Z26	X27	Y27	Z27	X28	Y28	Z28	X29	Y29	Z29	X30	Y30	Z30	X31	Y31	Z31	X32	Y32	Z32	X33	Y33	Z33	X34	Y34	Z34	X35	Y35	Z35	X36	Y36	Z36	X37	Y37	Z37	X38	Y38	Z38	X39	Y39	Z39	X40	Y40	Z40	X41	Y41	Z41	X42	Y42	Z42	X43	Y43	Z43	X44	Y44	Z44	X45	Y45	Z45	X46	Y46	Z46	X47	Y47	Z47	X48	Y48	Z48	X49	Y49	Z49	X50	Y50	Z50	X51	Y51	Z51	X52	Y52	Z52	X53	Y53	Z53	X54	Y54	Z54	X55	Y55	Z55	X56	Y56	Z56	X57	Y57	Z57	X58	Y58	Z58	X59	Y59	Z59	X60	Y60	Z60	X61	Y61	Z61	

200	0.995	-230.4621887207032	1642.375366210938	-919.3085937500002	-371.2405700683594	1574.15478515625	-1014.662780761719	-357.0411376953126	1579.422973632813	-863.1790161132815	-415.8148193359376	1449.772094726563	-935.5798950195315	-429.8958435058595	1129.957397460938	-942.1112060546877	-282.3818664550782	1375.764770507813	-940.9030761718752	-352.2593994140626	1394.567626953125	-1112.82666015625	-309.7628173828126	1224.305786132813	-1214.845947265625	-263.4226379394532	1210.9345703125	-1200.979614257813	-281.0978698730469	1167.923583984375	-1242.094116210938	-265.5564880371094	1115.191284179688	-1259.722900390625	-284.0496520996094	1069.59521484375	-1191.11669921875	-50.72873687744142	1010.317810058594	-1186.19384765625	-45.23751068115235	997.9488525390627	-1249.511108398438	26.80918693542481	983.550476074219	-1171.742553710938	-332.1424560546876	1380.741577148438	-772.6939086914065	-290.0845336914063	1195.450927734375	-683.8313598632814	-240.4581146240235	1193.235229492188	-686.4183349609376	-255.1393737792969	1135.58447265625	-671.7573242187501	-213.4046783447266	1084.560668945313	-663.2176513671876	-231.6387939453126	1054.99658203125	-737.5324707031251	-22.80500793457032	940.020690917969	-726.2053222656251	-33.89508438110352	927.0518188476565	-661.5261230468751	43.40416717529298	898.0723266601565	-718.0845947265626	-259.0780334472657	955.7842407226565	-1048.543823242188	-254.5419464111329	957.5656738281252	-829.4014282226565	-425.0678100585939	1021.013671875	-937.7891235351565	-432.8121948242189	992.7222900390627	-965.3977050781252	-430.4995727539064	991.1188964843752	-909.2248535156252	-342.5074462890626	800.364685058594	-1110.82275390625	-319.2718505859376	718.4227905273439	-1109.864013671875	-270.7747802734376	717.8850708007814	-1098.073974609375	-353.0596618652344	668.9365234375001	-1096.257080078125	-362.6587829589844	508.880828857422	-1072.3994140625	-327.7266235351563	499.5272827148439	-958.2769165039065	-328.0172119140626	363.4983520507813	-1008.337890625	-349.1783447265626	312.4028625488282	-1077.06494140625	-320.7729797363282	315.1252441406251	-1040.617553710938	-332.0804138183594	236.8388366699219	-1011.018981933594	-385.3833618164064	110.4455184936524	-1067.517333984375	-357.9312438964844	120.6843795776367	-987.3687744140627	-442.6869201660157	96.3554611206055	-1023.909912109375	-240.5923461914063	52.91416931152345	-1004.330139160156	-234.5459899902344	50.44818115234376	-1043.257568359375	-257.4482421875001	43.61202239990235	-1093.311767578125	-359.3362426757813	711.0861206054689	-762.3931884765626	-324.2566833496094	654.3127441406251	-752.2071533203126	-289.8063049316407	656.1146850585939	-755.1625366210939	-351.2510986328126	577.0527343750001	-766.9203491210939	-356.6347045898438	516.3329467773439	-770.0084228515627	-307.0271911621094	502.9116516113282	-877.4966430664065	-315.7231140136719	383.1663513183594	-774.0373535156252	-388.2711181640626	304.0887756347657	-757.1715087890626	-341.3320007324219	301.0025634765626	-757.5781860351564	-321.3365478515626	253.5878295898438	-784.4387207031252	-382.2609252929688	116.0170364379883	-754.0469360351564	-353.4515686035157	123.908203125	-834.1748657226565	-437.0120849609376	101.4545593261719	-798.1553344726565	-239.3845977783204	51.73609924316408	-811.359802246094	-234.7517852783204	52.17866134643556	-765.5144042968751	-266.2959899902344	36.64583206176759	-712.7531127929689	
201	1	-231.4181671142579	1642.379638671875	-919.9479980468752	-372.3010253906251	1574.089599609375	-1015.263000488281	-357.7536621093751	1579.3486328125	-863.7080078125002	-416.4418029785157	1449.78271484375	-935.8441162109377	-430.545867919922	1129.93115234375	-942.391540527344	-283.2332153320313	1375.873168945313	-941.777282714844	-353.0034790039063	1394.67431640625	-1113.119384765625	-307.4053649902344	1225.188354492188	-1214.771240234375	-261.1556396484376	1212.487182617188	-1200.46875	-277.7743225097657	1169.325805664063	-1241.898803710938	-260.8778686523438	1116.653076171875	-1259.109375	-278.9974670410157	1070.817260742188	-1190.787475585938	-45.71562576293946	1013.3701171875	-1186.68017578125	-40.2816390991211	1000.860595703125	-1249.903076171875	31.7373275756836	987.240173339844	-1172.805908203125	-332.1728820800782	1380.829956054688	-773.360046386719	-287.1123046875001	1196.439819335938	-684.9916381835939	-237.6112518310547	1194.685791015625	-688.3972778320314	-251.2628936767579	1137.095458984375	-673.2659912109376	-209.1677551269532	1086.356323242188	-665.3092041015626	-228.2119140625001	1056.697998046875	-739.2262573242189	-18.15285301208496	942.473571777344	-728.3115234375001	-29.27700424194337	929.5943603515627	-663.6609497070314	48.15755081176759	900.5259399414065	-720.4826049804689	-259.7018737792969	955.8377075195315	-1049.047729492188	-254.9085388183594	957.5884399414065	-830.0296630859377	-425.5930786132814	1021.035339355469	-938.0442504882815	-433.4187316894532	992.6409912109377	-965.5849609375002	-431.0452880859376	990.9998779296877	-909.4760742187502	-343.2977294921876	800.333679199219	-1111.23486328125	-320.3412170410157	718.5027465820314	-1109.551025390625	-271.4211425781251	717.7879638671876	-1098.605712890625	-353.7830200195313	668.9068603515626	-1096.540161132813	-363.1734619140626	508.8221130371095	-1072.605346679688	-328.1928100585938	499.4541015625001	-958.544128417969	-328.2501220703126	363.5373535156251	-1008.581665039063	-349.5830688476563	312.2578735351563	-1077.22607421875	-321.0943908691407	315.2482604980469	-1040.826538085938	-332.2137145996094	236.8789062500001	-1011.117004394531	-385.4798278808595	110.4412155151367	-1067.553466796875	-357.9446716308594	120.7013015747071	-987.413024902344	-442.688934326172	96.39458465576175	-1023.941223144531	-240.5945129394532	52.91138458251955	-1004.326416015625	-234.5586853027344	50.47716903686525	-1043.237060546875	-258.1605529785157	43.90623092651368	-1093.558715820313	-359.6804199218751	711.1074218750001	-762.7700195312501	-324.5828552246094	654.3554077148439	-752.5187988281251	-290.1045227050782	656.2005615234376	-755.4490966796876	-351.5864562988282	577.0627441406251	-767.2372436523439	-356.8728332519532	516.4017944335939	-770.2781982421877	-307.8986816406251	503.1820068359376	-877.9318847656252	-315.8928527832032	383.2008666992188	-774.1933593750002	-388.4277343750001	304.0766601562501	-757.3345947265626	-341.4835815429688	301.1586303710938	-757.7312622070314	-321.5000915527344	253.5974121093751	-784.5670166015627	-382.2337341308594	116.058090209961	-754.0645751953126	-353.5538635253907	123.892807006836	-834.2359619140627	-436.9937438964845	101.4396514892578	-798.1387329101565	-239.3910369873047	51.73094177246095	-811.3753662109377	-234.7649078369141	52.17643356323244	-765.5169067382814	-266.2899780273438	36.69950103759766	-712.7569580078126	
202	1.005	-232.2374572753907	1642.468383789063	-920.4561157226565	-373.0120239257813	1574.024291992188	-1015.760498046875	-358.6304321289063	1579.319946289063	-864.156921386719	-417.2056884765626	1449.663940429688	-936.2851562500002	-431.0758056640626	1129.927490234375	-942.6060791015627	-283.7180786132813	1375.902465820313	-942.206481933594	-353.7571716308594	1394.758056640625	-1113.419799804688	-305.1849670410157	1226.148559570313	-1214.666870117188	-258.8229980468751	1214.02490234375	-1200.070068359375	-274.4029541015626	1170.76953125	-1241.522827148438	-257.4185485839844	1118.337890625	-1258.712036132813	-276.5492553710938	1071.343139648438	-1191.498413085938	-40.35094833374024	1016.507263183594	-1187.093383789063	-34.53792190551759	1004.024841308594	-1250.718017578125	37.79021072387696	990.935729980469	-1173.766967773438	-332.1558227539063	1380.986572265625	-774.1126098632815	-284.3446044921876	1197.468017578125	-685.9830932617189	-234.9470367431641	1196.345458984375	-690.1893310546876	-247.7152862548829	1138.414794921875	-674.8051147460939	-205.1705322265626	1088.203002929688	-667.6286621093751	-224.3177490234376	1058.219116210938	-741.0404663085939	-13.58138465881348	945.2627563476565	-730.3074340820314	-24.56812286376954	932.4001464843752	-665.6180419921876	52.67153167724611	902.9419555664065	-722.5985107421876	-260.4114379882813	955.9130859375002	-1049.502075195313	-255.3292999267579	957.5994262695315	-830.8187255859377	-426.3196716308595	1020.870971679688	-938.2600708007815	-434.0779113769532	992.651062011719	-965.8541259765627	-431.5357360839845	991.0274047851565	-909.7598266601565	-343.4325866699219	800.2385253906252	-1111.4423828125	-321.0707702636719	718.4478759765626	-1109.996826171875	-272.1661071777344	717.8474731445314	-1098.969970703125	-354.4494018554688	668.9147949218751	-1096.818359375	-363.5673828125001	508.7390136718751	-1072.857543945313	-328.3924255371094	499.620819091797	-958.8826904296877	-328.3140869140626	363.9367980957032	-1008.5810546875	-349.8787841796876	312.1888122558594	-1077.292846679688	-321.3834838867188	315.2881469726563	-1040.987182617188	-332.3414306640626	236.9131774902344	-1011.246032714844	-385.4452209472657	110.3811874389649	-1067.529296875	-357.9504089355469	120.7420883178711	-987.4421386718752	-442.7407836914064	96.40290069580081	-1023.899475097656	-240.5918426513672	52.91319656372072	-1004.333435058594	-234.5481719970704	50.40803909301759	-1043.258422851563	-257.4992980957032	43.6243019104004	-1093.29345703125	-360.1562500000001	711.0317382812501	-763.1287231445314	-324.8990478515626	654.4304809570314	-752.8282470703126	-290.4360961914063	656.1773681640626	-755.7774658203126	-351.8529357910157	577.1836547851564	-767.5953369140626	-357.1192626953126	516.4021606445314	-770.551940917969	-307.3695983886719	502.6561279296876	-878.0405273437502	-316.1762390136719	383.1766967773438	-774.4078369140627	-388.5974121093751	304.0696716308594	-757.4953002929689	-341.6388854980469	301.2024536132813	-757.8703002929689	-321.6170959472657	253.6472625732422	-784.6926879882815	-382.2238769531251	116.0546112060547	-754.0653076171876	-353.6824340820313	123.8765716552735	-834.289245605469	-436.9852905273439	101.4432830810547	-798.1798095703127	-239.4057159423829	51.71609115600587	-811.3474731445315	-234.7507019042969	52.18281173706056	-765.5316772460939	-266.3139953613282	36.7078971862793	-712.7472534179689	
203	1.01	-233.2010192871094	1642.5888671875	-920.9390869140627	-373.9169311523438	1574.109985351563	-1016.211669921875	-359.3895263671876	1579.338012695313	-864.6918945312502	-417.9705200195314	1449.580322265625	-936.650329589844	-431.6019897460939	1129.904541015625	-942.905700683594	-284.3455810546876	1375.854858398438	-942.7815551757815	-353.8766784667969	1395.040649414063	-1113.776611328125	-302.8559265136719	1227.243408203125	-1214.566162109375	-256.4116516113282	1215.673217773438	-1199.4423828125	-271.0866699218751	1172.260375976563	-1241.227416992188	-253.4353790283204	1120.034545898438	-1258.2216796875	-272.1830139160157	1072.80029296875	-1191.051147460938	-35.68876266479493	1019.663513183594	-1187.915161132813	-31.36774444580079	1007.40966796875	-1251.136352539063	42.71089553833009	994.6279296875002	-1174.321655273438	-332.2773132324219	1381.12841796875	-774.8431396484377	-281.4612731933594	1198.591064453125	-686.8928222656251	-232.3248291015626	1198.021484375	-691.7770996093751	-244.037826538086	1140.013427734375	-676.2791748046876	-201.0511779785157	1090.331298828125	-669.5158691406251	-220.2042541503907	1059.661743164063	-743.2745971679689	-8.873667716979982	947.9802246093752	-732.2273559570314	-19.91421508789063	935.3382568359377	-667.5231323242189	57.33203125000001	905.9683227539065	-724.9744873046876	-261.0913391113282	955.930114746094	-1049.964965820313	-255.7646636962891	957.5546875000002	-831.4377441406252	-426.9093627929689	1020.829772949219	-938.6232910156252	-434.8401184082032	992.5944824218752	-966.1384887695315	-432.1116333007814	990.953552246094	-909.9615478515627	-344.3061218261719	800.202819824219	-1111.716796875	-321.5514526367188	718.4351196289064	-1110.771240234375	-272.9885253906251	717.8877563476564	-1099.475952148438	-355.1676025390626	668.9002075195314	-1097.143188476563	-364.2149963378907	508.697723388672	-1073.158203125	-328.5534362792969	499.6410217285157	-959.1282958984377	-328.5308532714844	363.9509582519532	-1008.763366699219	-350.0025024414063	312.2565612792969	-1077.39697265625	-321.5509033203126	315.2476501464844	-1041.135864257813	-332.4232788085938	236.9422760009766	-1011.348388671875	-385.3454589843751	110.3001403808594	-1067.538452148438	-357.9308471679688	120.7101211547852	-987.469909667969	-442.7277221679689	96.41162109375003	-1023.848022460938	-240.5809173583985	52.94129562377931	-1004.367309570313	-234.5092163085938	50.40755844116212	-1043.21923828125	-258.0870971679688	43.93908691406251	-1093.59228515625	-360.5702819824219	711.0609741210939	-763.5810546875001	-325.1953125000001	654.5186157226564	-753.2020874023439	-290.7711181640626	656.2607421875001	-756.1755371093751	-352.1583251953126	577.1962890625001	-767.9497680664064	-357.3885192871094	516.4300537109376	-770.8435058593752	-307.9311218261719	502.8312072753907	-878.3945312500002	-316.4196166992188	383.2453613281251	-774.6380004882815	-388.7604064941407	304.0280151367188	-757.6184692382814	-341.8676147460938	301.1432495117188	-758.0795288085939	-321.8273010253907	253.5925750732422	-784.860290527344	-382.2320251464844	116.0869064331055	-754.0964965820314	-353.6651306152344	123.8956298828125	-834.319519042969	-437.0074768066407	101.4276351928711	-798.1462402343752	-239.3836059570313	51.70816040039064	-811.366149902344	-234.7473602294922	52.16094207763673	-765.5332641601564	-266.3165893554688	36.7265853881836	-712.7303466796876	
